# Tiled2Unity generated file. Do not modify by hand.
# Wavefront file for 'test-level_snow_mesh_0002.obj'

# Vertices (Count = 72)
v -384 -384 0
v -448 -384 0
v -448 -320 0
v -384 -320 0
v -1920 -384 0
v -1984 -384 0
v -1984 -320 0
v -1920 -320 0
v -1152 -448 0
v -1216 -448 0
v -1216 -384 0
v -1152 -384 0
v -1856 -448 0
v -1920 -448 0
v -1920 -384 0
v -1856 -384 0
v -1280 -512 0
v -1344 -512 0
v -1344 -448 0
v -1280 -448 0
v -1792 -512 0
v -1856 -512 0
v -1856 -448 0
v -1792 -448 0
v -1344 -576 0
v -1408 -576 0
v -1408 -512 0
v -1344 -512 0
v -1728 -576 0
v -1792 -576 0
v -1792 -512 0
v -1728 -512 0
v -768 -640 0
v -832 -640 0
v -832 -576 0
v -768 -576 0
v -960 -640 0
v -1024 -640 0
v -1024 -576 0
v -960 -576 0
v -1408 -640 0
v -1472 -640 0
v -1472 -576 0
v -1408 -576 0
v -1664 -640 0
v -1728 -640 0
v -1728 -576 0
v -1664 -576 0
v -512 -704 0
v -576 -704 0
v -576 -640 0
v -512 -640 0
v -1472 -704 0
v -1536 -704 0
v -1536 -640 0
v -1472 -640 0
v -1600 -704 0
v -1664 -704 0
v -1664 -640 0
v -1600 -640 0
v -384 -768 0
v -448 -768 0
v -448 -704 0
v -384 -704 0
v -320 -832 0
v -384 -832 0
v -384 -768 0
v -320 -768 0
v -1344 -1024 0
v -1408 -1024 0
v -1408 -960 0
v -1344 -960 0

# Texture cooridinates (Count = 4)
vt 0 0
vt 1 0
vt 1 1
vt 0 1

# Normal
vn 0 0 -1

# Mesh description
g test-level_snow_mesh_0002

# Faces
f 1/1/1 2/2/1 3/3/1 4/4/1
f 5/1/1 6/2/1 7/3/1 8/4/1
f 9/2/1 10/1/1 11/4/1 12/3/1
f 13/1/1 14/2/1 15/3/1 16/4/1
f 17/2/1 18/1/1 19/4/1 20/3/1
f 21/1/1 22/2/1 23/3/1 24/4/1
f 25/2/1 26/1/1 27/4/1 28/3/1
f 29/1/1 30/2/1 31/3/1 32/4/1
f 33/2/1 34/1/1 35/4/1 36/3/1
f 37/1/1 38/2/1 39/3/1 40/4/1
f 41/2/1 42/1/1 43/4/1 44/3/1
f 45/1/1 46/2/1 47/3/1 48/4/1
f 49/1/1 50/2/1 51/3/1 52/4/1
f 53/2/1 54/1/1 55/4/1 56/3/1
f 57/1/1 58/2/1 59/3/1 60/4/1
f 61/1/1 62/2/1 63/3/1 64/4/1
f 65/1/1 66/2/1 67/3/1 68/4/1
f 69/1/1 70/2/1 71/3/1 72/4/1

