# Tiled2Unity generated file. Do not modify by hand.
# Wavefront file for 'test-level_snow_mesh_0046.obj'

# Vertices (Count = 56)
v -448 -576 0
v -512 -576 0
v -512 -512 0
v -448 -512 0
v -832 -576 0
v -896 -576 0
v -896 -512 0
v -832 -512 0
v -2368 -640 0
v -2432 -640 0
v -2432 -576 0
v -2368 -576 0
v -2432 -640 0
v -2496 -640 0
v -2496 -576 0
v -2432 -576 0
v -2496 -640 0
v -2560 -640 0
v -2560 -576 0
v -2496 -576 0
v -2240 -704 0
v -2304 -704 0
v -2304 -640 0
v -2240 -640 0
v -2112 -832 0
v -2176 -832 0
v -2176 -768 0
v -2112 -768 0
v -896 -896 0
v -960 -896 0
v -960 -832 0
v -896 -832 0
v -576 -960 0
v -640 -960 0
v -640 -896 0
v -576 -896 0
v -1152 -960 0
v -1216 -960 0
v -1216 -896 0
v -1152 -896 0
v -1600 -960 0
v -1664 -960 0
v -1664 -896 0
v -1600 -896 0
v -1856 -960 0
v -1920 -960 0
v -1920 -896 0
v -1856 -896 0
v -448 -1088 0
v -512 -1088 0
v -512 -1024 0
v -448 -1024 0
v -128 -1216 0
v -192 -1216 0
v -192 -1152 0
v -128 -1152 0

# Texture cooridinates (Count = 4)
vt 0 0
vt 1 0
vt 1 1
vt 0 1

# Normal
vn 0 0 -1

# Mesh description
g test-level_snow_mesh_0046

# Faces
f 1/1/1 2/2/1 3/3/1 4/4/1
f 5/1/1 6/2/1 7/3/1 8/4/1
f 9/1/1 10/2/1 11/3/1 12/4/1
f 13/1/1 14/2/1 15/3/1 16/4/1
f 17/1/1 18/2/1 19/3/1 20/4/1
f 21/1/1 22/2/1 23/3/1 24/4/1
f 25/1/1 26/2/1 27/3/1 28/4/1
f 29/1/1 30/2/1 31/3/1 32/4/1
f 33/1/1 34/2/1 35/3/1 36/4/1
f 37/1/1 38/2/1 39/3/1 40/4/1
f 41/1/1 42/2/1 43/3/1 44/4/1
f 45/1/1 46/2/1 47/3/1 48/4/1
f 49/1/1 50/2/1 51/3/1 52/4/1
f 53/1/1 54/2/1 55/3/1 56/4/1

