# Tiled2Unity generated file. Do not modify by hand.
# Wavefront file for 'test-level_snow_mesh_0044.obj'

# Vertices (Count = 44)
v -320 -576 0
v -384 -576 0
v -384 -512 0
v -320 -512 0
v -512 -576 0
v -576 -576 0
v -576 -512 0
v -512 -512 0
v -768 -576 0
v -832 -576 0
v -832 -512 0
v -768 -512 0
v -960 -576 0
v -1024 -576 0
v -1024 -512 0
v -960 -512 0
v -2304 -640 0
v -2368 -640 0
v -2368 -576 0
v -2304 -576 0
v -2176 -704 0
v -2240 -704 0
v -2240 -640 0
v -2176 -640 0
v -2048 -832 0
v -2112 -832 0
v -2112 -768 0
v -2048 -768 0
v -640 -896 0
v -704 -896 0
v -704 -832 0
v -640 -832 0
v -1088 -896 0
v -1152 -896 0
v -1152 -832 0
v -1088 -832 0
v -512 -960 0
v -576 -960 0
v -576 -896 0
v -512 -896 0
v -320 -1088 0
v -384 -1088 0
v -384 -1024 0
v -320 -1024 0

# Texture cooridinates (Count = 4)
vt 0 0
vt 1 0
vt 1 1
vt 0 1

# Normal
vn 0 0 -1

# Mesh description
g test-level_snow_mesh_0044

# Faces
f 1/1/1 2/2/1 3/3/1 4/4/1
f 5/2/1 6/1/1 7/4/1 8/3/1
f 9/1/1 10/2/1 11/3/1 12/4/1
f 13/2/1 14/1/1 15/4/1 16/3/1
f 17/1/1 18/2/1 19/3/1 20/4/1
f 21/1/1 22/2/1 23/3/1 24/4/1
f 25/1/1 26/2/1 27/3/1 28/4/1
f 29/1/1 30/2/1 31/3/1 32/4/1
f 33/2/1 34/1/1 35/4/1 36/3/1
f 37/1/1 38/2/1 39/3/1 40/4/1
f 41/1/1 42/2/1 43/3/1 44/4/1

